solid ALS box
facet normal -1.0 0.0 0.0
  outer loop
    vertex 6.0 13.000000000000002 2.500000000000001
    vertex 6.0 1.9999999999999998 0.5000000000000012
    vertex 6.0 1.9999999999999998 2.500000000000001
  endloop
endfacet
facet normal -1.0 0.0 0.0
  outer loop
    vertex 6.0 1.9999999999999998 0.5000000000000012
    vertex 6.0 13.000000000000002 2.500000000000001
    vertex 6.0 13.000000000000002 0.5000000000000012
  endloop
endfacet
facet normal 0.0 1.0 0.0
  outer loop
    vertex 9.499999999999995 4.000000000000007 2.500000000000001
    vertex 11.499999999999998 4.000000000000007 1.500000000000001
    vertex 9.499999999999995 4.000000000000007 1.500000000000001
  endloop
endfacet
facet normal 0.0 1.0 0.0
  outer loop
    vertex 11.499999999999998 4.000000000000007 1.500000000000001
    vertex 9.499999999999995 4.000000000000007 2.500000000000001
    vertex 11.499999999999998 4.000000000000007 2.500000000000001
  endloop
endfacet
facet normal -1.0 0.0 0.0
  outer loop
    vertex 11.499999999999998 6.500000000000005 2.500000000000001
    vertex 11.499999999999998 4.000000000000007 1.500000000000001
    vertex 11.499999999999998 4.000000000000007 2.500000000000001
  endloop
endfacet
facet normal -1.0 0.0 0.0
  outer loop
    vertex 11.499999999999998 4.000000000000007 1.500000000000001
    vertex 11.499999999999998 6.500000000000005 2.500000000000001
    vertex 11.499999999999998 6.500000000000005 1.500000000000001
  endloop
endfacet
facet normal 1.0 0.0 0.0
  outer loop
    vertex 9.499999999999995 6.500000000000005 1.500000000000001
    vertex 9.499999999999995 4.000000000000007 2.500000000000001
    vertex 9.499999999999995 4.000000000000007 1.500000000000001
  endloop
endfacet
facet normal 1.0 0.0 0.0
  outer loop
    vertex 9.499999999999995 4.000000000000007 2.500000000000001
    vertex 9.499999999999995 6.500000000000005 1.500000000000001
    vertex 9.499999999999995 6.500000000000005 2.500000000000001
  endloop
endfacet
facet normal 0.0 0.0 1.0
  outer loop
    vertex 11.499999999999998 4.000000000000007 1.500000000000001
    vertex 9.499999999999995 6.500000000000005 1.500000000000001
    vertex 9.499999999999995 4.000000000000007 1.500000000000001
  endloop
endfacet
facet normal 0.0 0.0 1.0
  outer loop
    vertex 9.499999999999995 6.500000000000005 1.500000000000001
    vertex 11.499999999999998 4.000000000000007 1.500000000000001
    vertex 11.499999999999998 6.500000000000005 1.500000000000001
  endloop
endfacet
facet normal 0.0 0.0 1.0
  outer loop
    vertex 6.0 1.9999999999999998 0.5000000000000012
    vertex 3.5000000000000004 13.000000000000002 0.5000000000000012
    vertex 3.5000000000000004 1.9999999999999998 0.5000000000000012
  endloop
endfacet
facet normal 0.0 0.0 1.0
  outer loop
    vertex 3.5000000000000004 13.000000000000002 0.5000000000000012
    vertex 6.0 1.9999999999999998 0.5000000000000012
    vertex 6.0 13.000000000000002 0.5000000000000012
  endloop
endfacet
facet normal 0.0 -1.0 0.0
  outer loop
    vertex 11.499999999999998 6.500000000000005 2.500000000000001
    vertex 9.499999999999995 6.500000000000005 1.500000000000001
    vertex 11.499999999999998 6.500000000000005 1.500000000000001
  endloop
endfacet
facet normal 0.0 -1.0 0.0
  outer loop
    vertex 9.499999999999995 6.500000000000005 1.500000000000001
    vertex 11.499999999999998 6.500000000000005 2.500000000000001
    vertex 9.499999999999995 6.500000000000005 2.500000000000001
  endloop
endfacet
facet normal -1.3394000036033023e-32 0.9284766908852594 0.3713906763541039
  outer loop
    vertex 6.0 1.5999999999999999 6.500000000000001
    vertex 16.5 1.9999999999999998 5.500000000000001
    vertex 6.0 1.9999999999999998 5.500000000000001
  endloop
endfacet
facet normal -1.3394000036033023e-32 0.9284766908852594 0.3713906763541039
  outer loop
    vertex 16.5 1.9999999999999998 5.500000000000001
    vertex 6.0 1.5999999999999999 6.500000000000001
    vertex 16.5 1.5999999999999999 6.500000000000001
  endloop
endfacet
facet normal -1.0 0.0 0.0
  outer loop
    vertex 0.0 22.5 7.5
    vertex 0.0 0.0 0.0
    vertex 0.0 0.0 7.5
  endloop
endfacet
facet normal -1.0 0.0 0.0
  outer loop
    vertex 0.0 0.0 0.0
    vertex 0.0 22.5 7.5
    vertex 3.1724622928663847e-15 18.206480005284707 5.778444235207045
  endloop
endfacet
facet normal -1.0 0.0 0.0
  outer loop
    vertex 0.0 0.0 0.0
    vertex 3.1724622928663847e-15 18.206480005284707 5.778444235207045
    vertex 3.1724622928663847e-15 17.7 5.568653347947323
  endloop
endfacet
facet normal -1.0 0.0 0.0
  outer loop
    vertex 0.0 0.0 0.0
    vertex 3.1724622928663847e-15 17.7 5.568653347947323
    vertex 3.1724622928663847e-15 17.26507575950825 5.234924240491751
  endloop
endfacet
facet normal -1.0 0.0 0.0
  outer loop
    vertex 0.0 0.0 0.0
    vertex 3.1724622928663847e-15 17.26507575950825 5.234924240491751
    vertex 3.1724622928663847e-15 16.931346652052678 4.800000000000001
  endloop
endfacet
facet normal -1.0 0.0 0.0
  outer loop
    vertex 0.0 0.0 0.0
    vertex 3.1724622928663847e-15 16.931346652052678 4.800000000000001
    vertex 3.1724622928663847e-15 16.721555764792956 4.293519994715294
  endloop
endfacet
facet normal -1.0 0.0 0.0
  outer loop
    vertex 0.0 0.0 0.0
    vertex 3.1724622928663847e-15 16.721555764792956 4.293519994715294
    vertex 3.1724622928663847e-15 16.65 3.750000000000001
  endloop
endfacet
facet normal -1.0 0.0 0.0
  outer loop
    vertex 3.1724622928663847e-15 18.206480005284707 5.778444235207045
    vertex 0.0 22.5 7.5
    vertex 3.1724622928663847e-15 18.75 5.850000000000002
  endloop
endfacet
facet normal -1.0 0.0 0.0
  outer loop
    vertex 3.1724622928663847e-15 18.75 5.850000000000002
    vertex 0.0 22.5 7.5
    vertex 3.1724622928663847e-15 19.293519994715293 5.778444235207045
  endloop
endfacet
facet normal -1.0 0.0 0.0
  outer loop
    vertex 3.1724622928663847e-15 19.293519994715293 5.778444235207045
    vertex 0.0 22.5 7.5
    vertex 3.1724622928663847e-15 19.8 5.568653347947323
  endloop
endfacet
facet normal -1.0 0.0 0.0
  outer loop
    vertex 3.1724622928663847e-15 19.8 5.568653347947323
    vertex 0.0 22.5 7.5
    vertex 3.1724622928663847e-15 20.23492424049175 5.234924240491751
  endloop
endfacet
facet normal -1.0 0.0 0.0
  outer loop
    vertex 3.1724622928663847e-15 20.23492424049175 5.234924240491751
    vertex 0.0 22.5 7.5
    vertex 3.1724622928663847e-15 20.568653347947322 4.800000000000001
  endloop
endfacet
facet normal -1.0 0.0 0.0
  outer loop
    vertex 3.1724622928663847e-15 20.568653347947322 4.800000000000001
    vertex 0.0 22.5 7.5
    vertex 3.1724622928663847e-15 20.778444235207044 4.293519994715295
  endloop
endfacet
facet normal -1.0 0.0 0.0
  outer loop
    vertex 3.1724622928663847e-15 20.778444235207044 4.293519994715295
    vertex 0.0 22.5 7.5
    vertex 3.1724622928663847e-15 20.85 3.75
  endloop
endfacet
facet normal -1.0 0.0 0.0
  outer loop
    vertex 0.0 0.0 0.0
    vertex 3.1724622928663847e-15 18.206480005284703 1.7215557647929558
    vertex 0.0 22.5 0.0
  endloop
endfacet
facet normal -1.0 0.0 0.0
  outer loop
    vertex 3.1724622928663847e-15 18.206480005284703 1.7215557647929558
    vertex 0.0 0.0 0.0
    vertex 3.1724622928663847e-15 17.7 1.931346652052678
  endloop
endfacet
facet normal -1.0 0.0 0.0
  outer loop
    vertex 3.1724622928663847e-15 17.7 1.931346652052678
    vertex 0.0 0.0 0.0
    vertex 3.1724622928663847e-15 17.26507575950825 2.2650757595082496
  endloop
endfacet
facet normal -1.0 0.0 0.0
  outer loop
    vertex 3.1724622928663847e-15 17.26507575950825 2.2650757595082496
    vertex 0.0 0.0 0.0
    vertex 3.1724622928663847e-15 16.931346652052675 2.7
  endloop
endfacet
facet normal -1.0 0.0 0.0
  outer loop
    vertex 3.1724622928663847e-15 16.931346652052675 2.7
    vertex 0.0 0.0 0.0
    vertex 3.1724622928663847e-15 16.721555764792956 3.206480005284707
  endloop
endfacet
facet normal -1.0 0.0 0.0
  outer loop
    vertex 3.1724622928663847e-15 16.721555764792956 3.206480005284707
    vertex 0.0 0.0 0.0
    vertex 3.1724622928663847e-15 16.65 3.750000000000001
  endloop
endfacet
facet normal -1.0 0.0 0.0
  outer loop
    vertex 0.0 22.5 0.0
    vertex 3.1724622928663847e-15 18.206480005284703 1.7215557647929558
    vertex 3.1724622928663847e-15 18.75 1.6499999999999988
  endloop
endfacet
facet normal -1.0 0.0 0.0
  outer loop
    vertex 0.0 22.5 0.0
    vertex 3.1724622928663847e-15 18.75 1.6499999999999988
    vertex 3.1724622928663847e-15 19.293519994715293 1.7215557647929554
  endloop
endfacet
facet normal -1.0 0.0 0.0
  outer loop
    vertex 0.0 22.5 0.0
    vertex 3.1724622928663847e-15 19.293519994715293 1.7215557647929554
    vertex 3.1724622928663847e-15 19.8 1.9313466520526776
  endloop
endfacet
facet normal -1.0 0.0 0.0
  outer loop
    vertex 0.0 22.5 0.0
    vertex 3.1724622928663847e-15 19.8 1.9313466520526776
    vertex 3.1724622928663847e-15 20.23492424049175 2.2650757595082487
  endloop
endfacet
facet normal -1.0 0.0 0.0
  outer loop
    vertex 0.0 22.5 0.0
    vertex 3.1724622928663847e-15 20.23492424049175 2.2650757595082487
    vertex 3.1724622928663847e-15 20.568653347947322 2.7
  endloop
endfacet
facet normal -1.0 0.0 0.0
  outer loop
    vertex 0.0 22.5 0.0
    vertex 3.1724622928663847e-15 20.568653347947322 2.7
    vertex 3.1724622928663847e-15 20.778444235207044 3.206480005284707
  endloop
endfacet
facet normal -1.0 0.0 0.0
  outer loop
    vertex 0.0 22.5 0.0
    vertex 3.1724622928663847e-15 20.778444235207044 3.206480005284707
    vertex 3.1724622928663847e-15 20.85 3.75
  endloop
endfacet
facet normal -1.0 0.0 0.0
  outer loop
    vertex 0.0 22.5 0.0
    vertex 3.1724622928663847e-15 20.85 3.75
    vertex 0.0 22.5 7.5
  endloop
endfacet
facet normal 1.0 0.0 0.0
  outer loop
    vertex 19.0 15.0 0.0
    vertex 19.0 0.0 7.5
    vertex 19.0 0.0 0.0
  endloop
endfacet
facet normal 1.0 0.0 0.0
  outer loop
    vertex 19.0 0.0 7.5
    vertex 19.0 15.0 0.0
    vertex 19.0 15.0 7.5
  endloop
endfacet
facet normal 0.0 0.0 1.0
  outer loop
    vertex 14.499999999999998 7.000000000000005 0.500000000000001
    vertex 10.499999999999993 11.000000000000002 0.500000000000001
    vertex 10.499999999999993 7.000000000000005 0.500000000000001
  endloop
endfacet
facet normal 0.0 0.0 1.0
  outer loop
    vertex 10.499999999999993 11.000000000000002 0.500000000000001
    vertex 14.499999999999998 7.000000000000005 0.500000000000001
    vertex 14.499999999999998 11.000000000000002 0.500000000000001
  endloop
endfacet
facet normal 0.0 -1.0 0.0
  outer loop
    vertex 16.5 13.000000000000002 5.500000000000001
    vertex 6.0 13.000000000000002 2.500000000000001
    vertex 16.5 13.000000000000002 2.500000000000001
  endloop
endfacet
facet normal 0.0 -1.0 0.0
  outer loop
    vertex 6.0 13.000000000000002 2.500000000000001
    vertex 16.5 13.000000000000002 5.500000000000001
    vertex 6.0 13.000000000000002 5.500000000000001
  endloop
endfacet
facet normal 0.0 -1.0 0.0
  outer loop
    vertex 6.0 13.000000000000002 2.500000000000001
    vertex 3.5000000000000004 13.000000000000002 0.5000000000000012
    vertex 6.0 13.000000000000002 0.5000000000000012
  endloop
endfacet
facet normal 0.0 -1.0 0.0
  outer loop
    vertex 3.5000000000000004 13.000000000000002 0.5000000000000012
    vertex 6.0 13.000000000000002 2.500000000000001
    vertex 3.5000000000000004 13.000000000000002 7.5
  endloop
endfacet
facet normal 0.0 -1.0 0.0
  outer loop
    vertex 3.5000000000000004 13.000000000000002 7.5
    vertex 6.0 13.000000000000002 2.500000000000001
    vertex 6.0 13.000000000000002 5.500000000000001
  endloop
endfacet
facet normal 0.0 -1.0 0.0
  outer loop
    vertex 3.5000000000000004 13.000000000000002 7.5
    vertex 6.0 13.000000000000002 5.500000000000001
    vertex 6.0 13.000000000000002 7.5
  endloop
endfacet
facet normal -4.692970647060105e-18 1.2318576766740892e-17 1.0
  outer loop
    vertex 0.0 0.0 7.5
    vertex 3.5000000000000004 1.9999999999999998 7.5
    vertex 0.0 22.5 7.5
  endloop
endfacet
facet normal -4.692970647060105e-18 1.2318576766740892e-17 1.0
  outer loop
    vertex 3.5000000000000004 1.9999999999999998 7.5
    vertex 0.0 0.0 7.5
    vertex 19.0 0.0 7.5
  endloop
endfacet
facet normal -4.692970647060105e-18 1.2318576766740892e-17 1.0
  outer loop
    vertex 3.5000000000000004 1.9999999999999998 7.5
    vertex 19.0 0.0 7.5
    vertex 6.0 1.9999999999999998 7.5
  endloop
endfacet
facet normal -4.692970647060105e-18 1.2318576766740892e-17 1.0
  outer loop
    vertex 6.0 1.9999999999999998 7.5
    vertex 19.0 0.0 7.5
    vertex 16.5 1.9999999999999998 7.5
  endloop
endfacet
facet normal -4.692970647060105e-18 1.2318576766740892e-17 1.0
  outer loop
    vertex 16.5 1.9999999999999998 7.5
    vertex 19.0 0.0 7.5
    vertex 16.5 13.000000000000002 7.5
  endloop
endfacet
facet normal -4.692970647060105e-18 1.2318576766740892e-17 1.0
  outer loop
    vertex 6.0 13.000000000000002 7.5
    vertex 4.999999999999999 15.0 7.5
    vertex 3.5000000000000004 13.000000000000002 7.5
  endloop
endfacet
facet normal -4.692970647060105e-18 1.2318576766740892e-17 1.0
  outer loop
    vertex 4.999999999999999 15.0 7.5
    vertex 6.0 13.000000000000002 7.5
    vertex 19.0 15.0 7.5
  endloop
endfacet
facet normal -4.692970647060105e-18 1.2318576766740892e-17 1.0
  outer loop
    vertex 19.0 15.0 7.5
    vertex 6.0 13.000000000000002 7.5
    vertex 16.5 13.000000000000002 7.5
  endloop
endfacet
facet normal -4.692970647060105e-18 1.2318576766740892e-17 1.0
  outer loop
    vertex 19.0 15.0 7.5
    vertex 16.5 13.000000000000002 7.5
    vertex 19.0 0.0 7.5
  endloop
endfacet
facet normal -4.692970647060105e-18 1.2318576766740892e-17 1.0
  outer loop
    vertex 0.0 22.5 7.5
    vertex 3.5000000000000004 13.000000000000002 7.5
    vertex 4.999999999999999 22.5 7.5
  endloop
endfacet
facet normal -4.692970647060105e-18 1.2318576766740892e-17 1.0
  outer loop
    vertex 3.5000000000000004 13.000000000000002 7.5
    vertex 0.0 22.5 7.5
    vertex 3.5000000000000004 1.9999999999999998 7.5
  endloop
endfacet
facet normal -4.692970647060105e-18 1.2318576766740892e-17 1.0
  outer loop
    vertex 4.999999999999999 22.5 7.5
    vertex 3.5000000000000004 13.000000000000002 7.5
    vertex 4.999999999999999 15.0 7.5
  endloop
endfacet
facet normal -4.692970647060105e-18 1.2318576766740892e-17 1.0
  outer loop
    vertex 4.999999999999999 22.5 7.5
    vertex 4.999999999999999 15.0 7.5
    vertex 4.999999999999999 18.75 7.499999999999999
  endloop
endfacet
facet normal -1.0 0.0 0.0
  outer loop
    vertex 16.5 13.386278100414499 6.51725239285842
    vertex 16.5 13.000000000000002 5.500000000000001
    vertex 16.5 13.000000000000002 7.5
  endloop
endfacet
facet normal -1.0 0.0 0.0
  outer loop
    vertex 16.5 1.9999999999999998 7.5
    vertex 16.5 1.9999999999999998 5.500000000000001
    vertex 16.5 1.5999999999999999 6.500000000000001
  endloop
endfacet
facet normal -1.0 0.0 0.0
  outer loop
    vertex 16.5 1.9999999999999998 5.500000000000001
    vertex 16.5 1.9999999999999998 7.5
    vertex 16.5 13.000000000000002 7.5
  endloop
endfacet
facet normal -1.0 0.0 0.0
  outer loop
    vertex 16.5 1.9999999999999998 5.500000000000001
    vertex 16.5 13.000000000000002 7.5
    vertex 16.5 1.9999999999999998 2.500000000000001
  endloop
endfacet
facet normal -1.0 0.0 0.0
  outer loop
    vertex 16.5 1.9999999999999998 2.500000000000001
    vertex 16.5 13.000000000000002 7.5
    vertex 16.5 13.000000000000002 2.500000000000001
  endloop
endfacet
facet normal -1.0 0.0 0.0
  outer loop
    vertex 16.5 13.000000000000002 2.500000000000001
    vertex 16.5 13.000000000000002 7.5
    vertex 16.5 13.000000000000002 5.500000000000001
  endloop
endfacet
facet normal 1.0 8.144059107527602e-20 -7.31792051913584e-17
  outer loop
    vertex 3.5000000000000004 13.000000000000002 0.5000000000000012
    vertex 3.5000000000000004 1.9999999999999998 7.5
    vertex 3.5000000000000004 1.9999999999999998 0.5000000000000012
  endloop
endfacet
facet normal 1.0 8.144059107527602e-20 -7.31792051913584e-17
  outer loop
    vertex 3.5000000000000004 1.9999999999999998 7.5
    vertex 3.5000000000000004 13.000000000000002 0.5000000000000012
    vertex 3.5000000000000004 13.000000000000002 7.5
  endloop
endfacet
facet normal -4.692970647060104e-18 1.2318576766740892e-17 -1.0
  outer loop
    vertex 4.999999999999999 22.5 0.0
    vertex 0.0 0.0 0.0
    vertex 0.0 22.5 0.0
  endloop
endfacet
facet normal -4.692970647060104e-18 1.2318576766740892e-17 -1.0
  outer loop
    vertex 0.0 0.0 0.0
    vertex 4.999999999999999 22.5 0.0
    vertex 4.999999999999999 15.0 0.0
  endloop
endfacet
facet normal -4.692970647060104e-18 1.2318576766740892e-17 -1.0
  outer loop
    vertex 0.0 0.0 0.0
    vertex 4.999999999999999 15.0 0.0
    vertex 19.0 0.0 0.0
  endloop
endfacet
facet normal -4.692970647060104e-18 1.2318576766740892e-17 -1.0
  outer loop
    vertex 4.999999999999999 15.0 0.0
    vertex 4.999999999999999 22.5 0.0
    vertex 4.999999999999999 18.75 1.4099832412739487e-15
  endloop
endfacet
facet normal -4.692970647060104e-18 1.2318576766740892e-17 -1.0
  outer loop
    vertex 19.0 0.0 0.0
    vertex 4.999999999999999 15.0 0.0
    vertex 19.0 15.0 0.0
  endloop
endfacet
facet normal 0.0 -1.0 0.0
  outer loop
    vertex 19.0 0.0 7.5
    vertex 0.0 0.0 0.0
    vertex 19.0 0.0 0.0
  endloop
endfacet
facet normal 0.0 -1.0 0.0
  outer loop
    vertex 0.0 0.0 0.0
    vertex 19.0 0.0 7.5
    vertex 0.0 0.0 7.5
  endloop
endfacet
facet normal 0.0 0.0 1.0
  outer loop
    vertex 6.0 1.9999999999999998 2.500000000000001
    vertex 9.499999999999995 4.000000000000007 2.500000000000001
    vertex 6.0 13.000000000000002 2.500000000000001
  endloop
endfacet
facet normal 0.0 0.0 1.0
  outer loop
    vertex 9.499999999999995 4.000000000000007 2.500000000000001
    vertex 6.0 1.9999999999999998 2.500000000000001
    vertex 16.5 1.9999999999999998 2.500000000000001
  endloop
endfacet
facet normal 0.0 0.0 1.0
  outer loop
    vertex 9.499999999999995 4.000000000000007 2.500000000000001
    vertex 16.5 1.9999999999999998 2.500000000000001
    vertex 11.499999999999998 4.000000000000007 2.500000000000001
  endloop
endfacet
facet normal 0.0 0.0 1.0
  outer loop
    vertex 11.499999999999998 4.000000000000007 2.500000000000001
    vertex 16.5 1.9999999999999998 2.500000000000001
    vertex 11.499999999999998 6.500000000000005 2.500000000000001
  endloop
endfacet
facet normal 0.0 0.0 1.0
  outer loop
    vertex 11.499999999999998 6.500000000000005 2.500000000000001
    vertex 16.5 1.9999999999999998 2.500000000000001
    vertex 14.499999999999998 7.000000000000005 2.500000000000001
  endloop
endfacet
facet normal 0.0 0.0 1.0
  outer loop
    vertex 14.499999999999998 7.000000000000005 2.500000000000001
    vertex 16.5 1.9999999999999998 2.500000000000001
    vertex 14.499999999999998 11.000000000000002 2.500000000000001
  endloop
endfacet
facet normal 0.0 0.0 1.0
  outer loop
    vertex 6.0 13.000000000000002 2.500000000000001
    vertex 10.499999999999993 11.000000000000002 2.500000000000001
    vertex 16.5 13.000000000000002 2.500000000000001
  endloop
endfacet
facet normal 0.0 0.0 1.0
  outer loop
    vertex 10.499999999999993 11.000000000000002 2.500000000000001
    vertex 6.0 13.000000000000002 2.500000000000001
    vertex 9.499999999999995 6.500000000000005 2.500000000000001
  endloop
endfacet
facet normal 0.0 0.0 1.0
  outer loop
    vertex 9.499999999999995 6.500000000000005 2.500000000000001
    vertex 6.0 13.000000000000002 2.500000000000001
    vertex 9.499999999999995 4.000000000000007 2.500000000000001
  endloop
endfacet
facet normal 0.0 0.0 1.0
  outer loop
    vertex 10.499999999999993 11.000000000000002 2.500000000000001
    vertex 9.499999999999995 6.500000000000005 2.500000000000001
    vertex 10.499999999999993 7.000000000000005 2.500000000000001
  endloop
endfacet
facet normal 0.0 0.0 1.0
  outer loop
    vertex 16.5 13.000000000000002 2.500000000000001
    vertex 10.499999999999993 11.000000000000002 2.500000000000001
    vertex 14.499999999999998 11.000000000000002 2.500000000000001
  endloop
endfacet
facet normal 0.0 0.0 1.0
  outer loop
    vertex 16.5 13.000000000000002 2.500000000000001
    vertex 14.499999999999998 11.000000000000002 2.500000000000001
    vertex 16.5 1.9999999999999998 2.500000000000001
  endloop
endfacet
facet normal 0.0 0.0 1.0
  outer loop
    vertex 11.499999999999998 6.500000000000005 2.500000000000001
    vertex 10.499999999999993 7.000000000000005 2.500000000000001
    vertex 9.499999999999995 6.500000000000005 2.500000000000001
  endloop
endfacet
facet normal 0.0 0.0 1.0
  outer loop
    vertex 10.499999999999993 7.000000000000005 2.500000000000001
    vertex 11.499999999999998 6.500000000000005 2.500000000000001
    vertex 14.499999999999998 7.000000000000005 2.500000000000001
  endloop
endfacet
facet normal 0.0 -1.0 0.0
  outer loop
    vertex 14.499999999999998 11.000000000000002 2.500000000000001
    vertex 10.499999999999993 11.000000000000002 0.500000000000001
    vertex 14.499999999999998 11.000000000000002 0.500000000000001
  endloop
endfacet
facet normal 0.0 -1.0 0.0
  outer loop
    vertex 10.499999999999993 11.000000000000002 0.500000000000001
    vertex 14.499999999999998 11.000000000000002 2.500000000000001
    vertex 10.499999999999993 11.000000000000002 2.500000000000001
  endloop
endfacet
facet normal -1.0 0.0 0.0
  outer loop
    vertex 14.499999999999998 11.000000000000002 2.500000000000001
    vertex 14.499999999999998 7.000000000000005 0.500000000000001
    vertex 14.499999999999998 7.000000000000005 2.500000000000001
  endloop
endfacet
facet normal -1.0 0.0 0.0
  outer loop
    vertex 14.499999999999998 7.000000000000005 0.500000000000001
    vertex 14.499999999999998 11.000000000000002 2.500000000000001
    vertex 14.499999999999998 11.000000000000002 0.500000000000001
  endloop
endfacet
facet normal 0.0 1.0 0.0
  outer loop
    vertex 10.499999999999993 7.000000000000005 2.500000000000001
    vertex 14.499999999999998 7.000000000000005 0.500000000000001
    vertex 10.499999999999993 7.000000000000005 0.500000000000001
  endloop
endfacet
facet normal 0.0 1.0 0.0
  outer loop
    vertex 14.499999999999998 7.000000000000005 0.500000000000001
    vertex 10.499999999999993 7.000000000000005 2.500000000000001
    vertex 14.499999999999998 7.000000000000005 2.500000000000001
  endloop
endfacet
facet normal 1.0 0.0 0.0
  outer loop
    vertex 10.499999999999993 11.000000000000002 0.500000000000001
    vertex 10.499999999999993 7.000000000000005 2.500000000000001
    vertex 10.499999999999993 7.000000000000005 0.500000000000001
  endloop
endfacet
facet normal 1.0 0.0 0.0
  outer loop
    vertex 10.499999999999993 7.000000000000005 2.500000000000001
    vertex 10.499999999999993 11.000000000000002 0.500000000000001
    vertex 10.499999999999993 11.000000000000002 2.500000000000001
  endloop
endfacet
facet normal 0.0 1.0 0.0
  outer loop
    vertex 3.5000000000000004 1.9999999999999998 7.5
    vertex 6.0 1.9999999999999998 0.5000000000000012
    vertex 3.5000000000000004 1.9999999999999998 0.5000000000000012
  endloop
endfacet
facet normal 0.0 1.0 0.0
  outer loop
    vertex 6.0 1.9999999999999998 0.5000000000000012
    vertex 3.5000000000000004 1.9999999999999998 7.5
    vertex 6.0 1.9999999999999998 2.500000000000001
  endloop
endfacet
facet normal 0.0 1.0 0.0
  outer loop
    vertex 6.0 1.9999999999999998 2.500000000000001
    vertex 3.5000000000000004 1.9999999999999998 7.5
    vertex 6.0 1.9999999999999998 5.500000000000001
  endloop
endfacet
facet normal 0.0 1.0 0.0
  outer loop
    vertex 6.0 1.9999999999999998 2.500000000000001
    vertex 6.0 1.9999999999999998 5.500000000000001
    vertex 16.5 1.9999999999999998 2.500000000000001
  endloop
endfacet
facet normal 0.0 1.0 0.0
  outer loop
    vertex 6.0 1.9999999999999998 5.500000000000001
    vertex 3.5000000000000004 1.9999999999999998 7.5
    vertex 6.0 1.9999999999999998 7.5
  endloop
endfacet
facet normal 0.0 1.0 0.0
  outer loop
    vertex 16.5 1.9999999999999998 5.500000000000001
    vertex 16.5 1.9999999999999998 2.500000000000001
    vertex 6.0 1.9999999999999998 5.500000000000001
  endloop
endfacet
facet normal 1.8567397778205724e-18 -0.9306874429879625 -0.3658153679993891
  outer loop
    vertex 16.5 13.000000000000002 7.5
    vertex 6.0 13.386278100414499 6.51725239285842
    vertex 16.5 13.386278100414499 6.51725239285842
  endloop
endfacet
facet normal 1.8567397778205724e-18 -0.9306874429879625 -0.3658153679993891
  outer loop
    vertex 6.0 13.386278100414499 6.51725239285842
    vertex 16.5 13.000000000000002 7.5
    vertex 6.0 13.000000000000002 7.5
  endloop
endfacet
facet normal -1.2612725672996498e-17 -0.9348683300961509 0.3549946554291128
  outer loop
    vertex 16.5 13.000000000000002 5.500000000000001
    vertex 6.0 13.386278100414499 6.51725239285842
    vertex 6.0 13.000000000000002 5.500000000000001
  endloop
endfacet
facet normal -1.2612725672996498e-17 -0.9348683300961509 0.3549946554291128
  outer loop
    vertex 6.0 13.386278100414499 6.51725239285842
    vertex 16.5 13.000000000000002 5.500000000000001
    vertex 16.5 13.386278100414499 6.51725239285842
  endloop
endfacet
facet normal -1.0 0.0 0.0
  outer loop
    vertex 6.0 13.386278100414499 6.51725239285842
    vertex 6.0 13.000000000000002 5.500000000000001
    vertex 6.0 13.000000000000002 7.5
  endloop
endfacet
facet normal -1.339400003603302e-32 0.9284766908852594 -0.37139067635410383
  outer loop
    vertex 6.0 1.9999999999999998 7.5
    vertex 16.5 1.5999999999999999 6.500000000000001
    vertex 6.0 1.5999999999999999 6.500000000000001
  endloop
endfacet
facet normal -1.339400003603302e-32 0.9284766908852594 -0.37139067635410383
  outer loop
    vertex 16.5 1.5999999999999999 6.500000000000001
    vertex 6.0 1.9999999999999998 7.5
    vertex 16.5 1.9999999999999998 7.5
  endloop
endfacet
facet normal 1.0 0.0 0.0
  outer loop
    vertex 6.0 1.9999999999999998 7.5
    vertex 6.0 1.5999999999999999 6.500000000000001
    vertex 6.0 1.9999999999999998 5.500000000000001
  endloop
endfacet
facet normal 0.0 1.0 0.0
  outer loop
    vertex 4.999999999999999 15.0 3.75
    vertex 19.0 15.0 0.0
    vertex 4.999999999999999 15.0 0.0
  endloop
endfacet
facet normal 0.0 1.0 0.0
  outer loop
    vertex 19.0 15.0 0.0
    vertex 4.999999999999999 15.0 3.75
    vertex 19.0 15.0 7.5
  endloop
endfacet
facet normal 0.0 1.0 0.0
  outer loop
    vertex 19.0 15.0 7.5
    vertex 4.999999999999999 15.0 3.75
    vertex 4.999999999999999 15.0 7.5
  endloop
endfacet
facet normal 0.0 1.0 0.0
  outer loop
    vertex 0.0 22.5 7.5
    vertex 4.999999999999999 22.5 0.0
    vertex 0.0 22.5 0.0
  endloop
endfacet
facet normal 0.0 1.0 0.0
  outer loop
    vertex 4.999999999999999 22.5 0.0
    vertex 0.0 22.5 7.5
    vertex 4.999999999999999 22.5 3.7499999999999996
  endloop
endfacet
facet normal 0.0 1.0 0.0
  outer loop
    vertex 4.999999999999999 22.5 3.7499999999999996
    vertex 0.0 22.5 7.5
    vertex 4.999999999999999 22.5 7.5
  endloop
endfacet
facet normal 1.0 0.0 0.0
  outer loop
    vertex 4.999999999999999 15.127778151415995 4.720571419134456
    vertex 4.999999999999999 15.0 7.5
    vertex 4.999999999999999 15.0 3.75
  endloop
endfacet
facet normal 1.0 0.0 0.0
  outer loop
    vertex 4.999999999999999 15.0 7.5
    vertex 4.999999999999999 15.127778151415995 4.720571419134456
    vertex 4.999999999999999 15.502404735808357 5.625000000000001
  endloop
endfacet
facet normal 1.0 0.0 0.0
  outer loop
    vertex 4.999999999999999 15.0 7.5
    vertex 4.999999999999999 15.502404735808357 5.625000000000001
    vertex 4.999999999999999 16.098349570550447 6.401650429449553
  endloop
endfacet
facet normal 1.0 0.0 0.0
  outer loop
    vertex 4.999999999999999 15.0 7.5
    vertex 4.999999999999999 16.098349570550447 6.401650429449553
    vertex 4.999999999999999 16.875000000000004 6.997595264191646
  endloop
endfacet
facet normal 1.0 0.0 0.0
  outer loop
    vertex 4.999999999999999 15.0 7.5
    vertex 4.999999999999999 16.875000000000004 6.997595264191646
    vertex 4.999999999999999 17.77942858086555 7.3722218485840045
  endloop
endfacet
facet normal 1.0 0.0 0.0
  outer loop
    vertex 4.999999999999999 15.0 7.5
    vertex 4.999999999999999 17.77942858086555 7.3722218485840045
    vertex 4.999999999999999 18.75 7.499999999999999
  endloop
endfacet
facet normal 1.0 0.0 0.0
  outer loop
    vertex 4.999999999999999 15.0 0.0
    vertex 4.999999999999999 15.127778151415994 2.7794285808655474
    vertex 4.999999999999999 15.0 3.75
  endloop
endfacet
facet normal 1.0 0.0 0.0
  outer loop
    vertex 4.999999999999999 15.127778151415994 2.7794285808655474
    vertex 4.999999999999999 15.0 0.0
    vertex 4.999999999999999 15.502404735808357 1.875000000000001
  endloop
endfacet
facet normal 1.0 0.0 0.0
  outer loop
    vertex 4.999999999999999 15.502404735808357 1.875000000000001
    vertex 4.999999999999999 15.0 0.0
    vertex 4.999999999999999 16.098349570550447 1.098349570550448
  endloop
endfacet
facet normal 1.0 0.0 0.0
  outer loop
    vertex 4.999999999999999 16.098349570550447 1.098349570550448
    vertex 4.999999999999999 15.0 0.0
    vertex 4.999999999999999 16.875 0.5024047358083568
  endloop
endfacet
facet normal 1.0 0.0 0.0
  outer loop
    vertex 4.999999999999999 16.875 0.5024047358083568
    vertex 4.999999999999999 15.0 0.0
    vertex 4.999999999999999 17.77942858086555 0.1277781514159955
  endloop
endfacet
facet normal 1.0 0.0 0.0
  outer loop
    vertex 4.999999999999999 17.77942858086555 0.1277781514159955
    vertex 4.999999999999999 15.0 0.0
    vertex 4.999999999999999 18.75 1.4099832412739487e-15
  endloop
endfacet
facet normal 1.0 0.0 0.0
  outer loop
    vertex 4.999999999999999 22.5 0.0
    vertex 4.999999999999999 19.72057141913445 0.1277781514159955
    vertex 4.999999999999999 18.75 1.4099832412739487e-15
  endloop
endfacet
facet normal 1.0 0.0 0.0
  outer loop
    vertex 4.999999999999999 19.72057141913445 0.1277781514159955
    vertex 4.999999999999999 22.5 0.0
    vertex 4.999999999999999 20.625 0.5024047358083561
  endloop
endfacet
facet normal 1.0 0.0 0.0
  outer loop
    vertex 4.999999999999999 20.625 0.5024047358083561
    vertex 4.999999999999999 22.5 0.0
    vertex 4.999999999999999 21.40165042944955 1.0983495705504478
  endloop
endfacet
facet normal 1.0 0.0 0.0
  outer loop
    vertex 4.999999999999999 21.40165042944955 1.0983495705504478
    vertex 4.999999999999999 22.5 0.0
    vertex 4.999999999999999 21.99759526419164 1.8749999999999993
  endloop
endfacet
facet normal 1.0 0.0 0.0
  outer loop
    vertex 4.999999999999999 21.99759526419164 1.8749999999999993
    vertex 4.999999999999999 22.5 0.0
    vertex 4.999999999999999 22.372221848584005 2.779428580865547
  endloop
endfacet
facet normal 1.0 0.0 0.0
  outer loop
    vertex 4.999999999999999 22.372221848584005 2.779428580865547
    vertex 4.999999999999999 22.5 0.0
    vertex 4.999999999999999 22.5 3.7499999999999996
  endloop
endfacet
facet normal 1.0 0.0 0.0
  outer loop
    vertex 4.999999999999999 19.720571419134455 7.3722218485840045
    vertex 4.999999999999999 22.5 7.5
    vertex 4.999999999999999 18.75 7.499999999999999
  endloop
endfacet
facet normal 1.0 0.0 0.0
  outer loop
    vertex 4.999999999999999 22.5 7.5
    vertex 4.999999999999999 19.720571419134455 7.3722218485840045
    vertex 4.999999999999999 20.625 6.997595264191643
  endloop
endfacet
facet normal 1.0 0.0 0.0
  outer loop
    vertex 4.999999999999999 22.5 7.5
    vertex 4.999999999999999 20.625 6.997595264191643
    vertex 4.999999999999999 21.401650429449553 6.4016504294495515
  endloop
endfacet
facet normal 1.0 0.0 0.0
  outer loop
    vertex 4.999999999999999 22.5 7.5
    vertex 4.999999999999999 21.401650429449553 6.4016504294495515
    vertex 4.999999999999999 21.997595264191645 5.624999999999998
  endloop
endfacet
facet normal 1.0 0.0 0.0
  outer loop
    vertex 4.999999999999999 22.5 7.5
    vertex 4.999999999999999 21.997595264191645 5.624999999999998
    vertex 4.999999999999999 22.372221848584005 4.720571419134451
  endloop
endfacet
facet normal 1.0 0.0 0.0
  outer loop
    vertex 4.999999999999999 22.5 7.5
    vertex 4.999999999999999 22.372221848584005 4.720571419134451
    vertex 4.999999999999999 22.5 3.7499999999999996
  endloop
endfacet
facet normal 0.7370554635070127 -0.6700504213700123 0.08821381148284892
  outer loop
    vertex 4.999999999999999 22.372221848584005 2.779428580865547
    vertex 3.499999999999999 20.85 3.75
    vertex 3.499999999999999 20.778444235207044 3.206480005284707
  endloop
endfacet
facet normal 0.7370554635070127 -0.6700504213700123 0.08821381148284892
  outer loop
    vertex 3.499999999999999 20.85 3.75
    vertex 4.999999999999999 22.372221848584005 2.779428580865547
    vertex 4.999999999999999 22.5 3.7499999999999996
  endloop
endfacet
facet normal 0.7370554635070127 -0.6700504213700125 -0.08821381148284897
  outer loop
    vertex 3.499999999999999 20.85 3.75
    vertex 4.999999999999999 22.372221848584005 4.720571419134451
    vertex 3.499999999999999 20.778444235207044 4.293519994715295
  endloop
endfacet
facet normal 0.7370554635070127 -0.6700504213700125 -0.08821381148284897
  outer loop
    vertex 4.999999999999999 22.372221848584005 4.720571419134451
    vertex 3.499999999999999 20.85 3.75
    vertex 4.999999999999999 22.5 3.7499999999999996
  endloop
endfacet
facet normal 0.7370554635070126 -0.6243875924643233 -0.2586298089762065
  outer loop
    vertex 3.499999999999999 20.778444235207044 4.293519994715295
    vertex 4.999999999999999 21.997595264191645 5.624999999999998
    vertex 3.499999999999999 20.568653347947322 4.800000000000001
  endloop
endfacet
facet normal 0.7370554635070126 -0.6243875924643233 -0.2586298089762065
  outer loop
    vertex 4.999999999999999 21.997595264191645 5.624999999999998
    vertex 3.499999999999999 20.778444235207044 4.293519994715295
    vertex 4.999999999999999 22.372221848584005 4.720571419134451
  endloop
endfacet
facet normal 0.7370554635070126 -0.5361737809814737 -0.4114206123938051
  outer loop
    vertex 3.499999999999999 20.568653347947322 4.800000000000001
    vertex 4.999999999999999 21.401650429449553 6.4016504294495515
    vertex 3.499999999999999 20.23492424049175 5.234924240491751
  endloop
endfacet
facet normal 0.7370554635070126 -0.5361737809814737 -0.4114206123938051
  outer loop
    vertex 4.999999999999999 21.401650429449553 6.4016504294495515
    vertex 3.499999999999999 20.568653347947322 4.800000000000001
    vertex 4.999999999999999 21.997595264191645 5.624999999999998
  endloop
endfacet
facet normal 0.7370554635070126 -0.41142061239380545 -0.5361737809814733
  outer loop
    vertex 3.499999999999999 20.23492424049175 5.234924240491751
    vertex 4.999999999999999 20.625 6.997595264191643
    vertex 3.499999999999999 19.8 5.568653347947323
  endloop
endfacet
facet normal 0.7370554635070126 -0.41142061239380545 -0.5361737809814733
  outer loop
    vertex 4.999999999999999 20.625 6.997595264191643
    vertex 3.499999999999999 20.23492424049175 5.234924240491751
    vertex 4.999999999999999 21.401650429449553 6.4016504294495515
  endloop
endfacet
facet normal 0.7370554635070127 -0.25862980897620813 -0.6243875924643226
  outer loop
    vertex 3.499999999999999 19.8 5.568653347947323
    vertex 4.999999999999999 19.720571419134455 7.3722218485840045
    vertex 3.499999999999999 19.293519994715293 5.778444235207045
  endloop
endfacet
facet normal 0.7370554635070127 -0.25862980897620813 -0.6243875924643226
  outer loop
    vertex 4.999999999999999 19.720571419134455 7.3722218485840045
    vertex 3.499999999999999 19.8 5.568653347947323
    vertex 4.999999999999999 20.625 6.997595264191643
  endloop
endfacet
facet normal 0.7370554635070125 -0.0882138114828492 -0.6700504213700127
  outer loop
    vertex 3.499999999999999 19.293519994715293 5.778444235207045
    vertex 4.999999999999999 18.75 7.499999999999999
    vertex 3.499999999999999 18.75 5.850000000000002
  endloop
endfacet
facet normal 0.7370554635070125 -0.0882138114828492 -0.6700504213700127
  outer loop
    vertex 4.999999999999999 18.75 7.499999999999999
    vertex 3.499999999999999 19.293519994715293 5.778444235207045
    vertex 4.999999999999999 19.720571419134455 7.3722218485840045
  endloop
endfacet
facet normal 0.7370554635070126 0.08821381148284947 -0.6700504213700126
  outer loop
    vertex 3.499999999999999 18.206480005284707 5.778444235207045
    vertex 4.999999999999999 18.75 7.499999999999999
    vertex 4.999999999999999 17.77942858086555 7.3722218485840045
  endloop
endfacet
facet normal 0.7370554635070126 0.08821381148284947 -0.6700504213700126
  outer loop
    vertex 4.999999999999999 18.75 7.499999999999999
    vertex 3.499999999999999 18.206480005284707 5.778444235207045
    vertex 3.499999999999999 18.75 5.850000000000002
  endloop
endfacet
facet normal 0.7370554635070126 0.25862980897620697 -0.6243875924643232
  outer loop
    vertex 3.499999999999999 17.7 5.568653347947323
    vertex 4.999999999999999 17.77942858086555 7.3722218485840045
    vertex 4.999999999999999 16.875000000000004 6.997595264191646
  endloop
endfacet
facet normal 0.7370554635070126 0.25862980897620697 -0.6243875924643232
  outer loop
    vertex 4.999999999999999 17.77942858086555 7.3722218485840045
    vertex 3.499999999999999 17.7 5.568653347947323
    vertex 3.499999999999999 18.206480005284707 5.778444235207045
  endloop
endfacet
facet normal 0.7370554635070125 0.41142061239380534 -0.5361737809814738
  outer loop
    vertex 3.499999999999999 17.26507575950825 5.234924240491751
    vertex 4.999999999999999 16.875000000000004 6.997595264191646
    vertex 4.999999999999999 16.098349570550447 6.401650429449553
  endloop
endfacet
facet normal 0.7370554635070125 0.41142061239380534 -0.5361737809814738
  outer loop
    vertex 4.999999999999999 16.875000000000004 6.997595264191646
    vertex 3.499999999999999 17.26507575950825 5.234924240491751
    vertex 3.499999999999999 17.7 5.568653347947323
  endloop
endfacet
facet normal 0.7370554635070126 0.5361737809814738 -0.4114206123938052
  outer loop
    vertex 3.499999999999999 16.931346652052678 4.800000000000001
    vertex 4.999999999999999 16.098349570550447 6.401650429449553
    vertex 4.999999999999999 15.502404735808357 5.625000000000001
  endloop
endfacet
facet normal 0.7370554635070126 0.5361737809814738 -0.4114206123938052
  outer loop
    vertex 4.999999999999999 16.098349570550447 6.401650429449553
    vertex 3.499999999999999 16.931346652052678 4.800000000000001
    vertex 3.499999999999999 17.26507575950825 5.234924240491751
  endloop
endfacet
facet normal 0.7370554635070127 0.6243875924643227 -0.2586298089762076
  outer loop
    vertex 3.499999999999999 16.721555764792956 4.293519994715294
    vertex 4.999999999999999 15.502404735808357 5.625000000000001
    vertex 4.999999999999999 15.127778151415995 4.720571419134456
  endloop
endfacet
facet normal 0.7370554635070127 0.6243875924643227 -0.2586298089762076
  outer loop
    vertex 4.999999999999999 15.502404735808357 5.625000000000001
    vertex 3.499999999999999 16.721555764792956 4.293519994715294
    vertex 3.499999999999999 16.931346652052678 4.800000000000001
  endloop
endfacet
facet normal 0.7370554635070126 0.6700504213700124 -0.08821381148285033
  outer loop
    vertex 3.499999999999999 16.65 3.750000000000001
    vertex 4.999999999999999 15.127778151415995 4.720571419134456
    vertex 4.999999999999999 15.0 3.75
  endloop
endfacet
facet normal 0.7370554635070126 0.6700504213700124 -0.08821381148285033
  outer loop
    vertex 4.999999999999999 15.127778151415995 4.720571419134456
    vertex 3.499999999999999 16.65 3.750000000000001
    vertex 3.499999999999999 16.721555764792956 4.293519994715294
  endloop
endfacet
facet normal 0.7370554635070127 0.6700504213700123 0.08821381148284892
  outer loop
    vertex 4.999999999999999 15.127778151415994 2.7794285808655474
    vertex 3.499999999999999 16.65 3.750000000000001
    vertex 4.999999999999999 15.0 3.75
  endloop
endfacet
facet normal 0.7370554635070127 0.6700504213700123 0.08821381148284892
  outer loop
    vertex 3.499999999999999 16.65 3.750000000000001
    vertex 4.999999999999999 15.127778151415994 2.7794285808655474
    vertex 3.499999999999999 16.721555764792956 3.206480005284707
  endloop
endfacet
facet normal 0.7370554635070126 0.6243875924643227 0.25862980897620813
  outer loop
    vertex 4.999999999999999 15.502404735808357 1.875000000000001
    vertex 3.499999999999999 16.721555764792956 3.206480005284707
    vertex 4.999999999999999 15.127778151415994 2.7794285808655474
  endloop
endfacet
facet normal 0.7370554635070126 0.6243875924643227 0.25862980897620813
  outer loop
    vertex 3.499999999999999 16.721555764792956 3.206480005284707
    vertex 4.999999999999999 15.502404735808357 1.875000000000001
    vertex 3.499999999999999 16.931346652052675 2.7
  endloop
endfacet
facet normal 0.7370554635070122 0.5361737809814737 0.4114206123938057
  outer loop
    vertex 4.999999999999999 16.098349570550447 1.098349570550448
    vertex 3.499999999999999 16.931346652052675 2.7
    vertex 4.999999999999999 15.502404735808357 1.875000000000001
  endloop
endfacet
facet normal 0.7370554635070122 0.5361737809814737 0.4114206123938057
  outer loop
    vertex 3.499999999999999 16.931346652052675 2.7
    vertex 4.999999999999999 16.098349570550447 1.098349570550448
    vertex 3.499999999999999 17.26507575950825 2.2650757595082496
  endloop
endfacet
facet normal 0.7370554635070125 0.41142061239380573 0.5361737809814735
  outer loop
    vertex 4.999999999999999 16.875 0.5024047358083568
    vertex 3.499999999999999 17.26507575950825 2.2650757595082496
    vertex 4.999999999999999 16.098349570550447 1.098349570550448
  endloop
endfacet
facet normal 0.7370554635070125 0.41142061239380573 0.5361737809814735
  outer loop
    vertex 3.499999999999999 17.26507575950825 2.2650757595082496
    vertex 4.999999999999999 16.875 0.5024047358083568
    vertex 3.499999999999999 17.7 1.931346652052678
  endloop
endfacet
facet normal 0.7370554635070125 0.2586298089762079 0.624387592464323
  outer loop
    vertex 4.999999999999999 17.77942858086555 0.1277781514159955
    vertex 3.499999999999999 17.7 1.931346652052678
    vertex 4.999999999999999 16.875 0.5024047358083568
  endloop
endfacet
facet normal 0.7370554635070125 0.2586298089762079 0.624387592464323
  outer loop
    vertex 3.499999999999999 17.7 1.931346652052678
    vertex 4.999999999999999 17.77942858086555 0.1277781514159955
    vertex 3.499999999999999 18.206480005284703 1.7215557647929558
  endloop
endfacet
facet normal 0.7370554635070126 0.08821381148284924 0.6700504213700126
  outer loop
    vertex 4.999999999999999 18.75 1.4099832412739487e-15
    vertex 3.499999999999999 18.206480005284703 1.7215557647929558
    vertex 4.999999999999999 17.77942858086555 0.1277781514159955
  endloop
endfacet
facet normal 0.7370554635070126 0.08821381148284924 0.6700504213700126
  outer loop
    vertex 3.499999999999999 18.206480005284703 1.7215557647929558
    vertex 4.999999999999999 18.75 1.4099832412739487e-15
    vertex 3.499999999999999 18.75 1.6499999999999988
  endloop
endfacet
facet normal 0.7370554635070125 -0.08821381148284935 0.6700504213700126
  outer loop
    vertex 4.999999999999999 19.72057141913445 0.1277781514159955
    vertex 3.499999999999999 18.75 1.6499999999999988
    vertex 4.999999999999999 18.75 1.4099832412739487e-15
  endloop
endfacet
facet normal 0.7370554635070125 -0.08821381148284935 0.6700504213700126
  outer loop
    vertex 3.499999999999999 18.75 1.6499999999999988
    vertex 4.999999999999999 19.72057141913445 0.1277781514159955
    vertex 3.499999999999999 19.293519994715293 1.7215557647929554
  endloop
endfacet
facet normal 0.7370554635070125 -0.25862980897620697 0.6243875924643232
  outer loop
    vertex 4.999999999999999 19.72057141913445 0.1277781514159955
    vertex 3.499999999999999 19.8 1.9313466520526776
    vertex 3.499999999999999 19.293519994715293 1.7215557647929554
  endloop
endfacet
facet normal 0.7370554635070125 -0.25862980897620697 0.6243875924643232
  outer loop
    vertex 3.499999999999999 19.8 1.9313466520526776
    vertex 4.999999999999999 19.72057141913445 0.1277781514159955
    vertex 4.999999999999999 20.625 0.5024047358083561
  endloop
endfacet
facet normal 0.7370554635070126 -0.41142061239380556 0.5361737809814735
  outer loop
    vertex 4.999999999999999 20.625 0.5024047358083561
    vertex 3.499999999999999 20.23492424049175 2.2650757595082487
    vertex 3.499999999999999 19.8 1.9313466520526776
  endloop
endfacet
facet normal 0.7370554635070126 -0.41142061239380556 0.5361737809814735
  outer loop
    vertex 3.499999999999999 20.23492424049175 2.2650757595082487
    vertex 4.999999999999999 20.625 0.5024047358083561
    vertex 4.999999999999999 21.40165042944955 1.0983495705504478
  endloop
endfacet
facet normal 0.7370554635070125 -0.5361737809814735 0.41142061239380584
  outer loop
    vertex 4.999999999999999 21.40165042944955 1.0983495705504478
    vertex 3.499999999999999 20.568653347947322 2.7
    vertex 3.499999999999999 20.23492424049175 2.2650757595082487
  endloop
endfacet
facet normal 0.7370554635070125 -0.5361737809814735 0.41142061239380584
  outer loop
    vertex 3.499999999999999 20.568653347947322 2.7
    vertex 4.999999999999999 21.40165042944955 1.0983495705504478
    vertex 4.999999999999999 21.99759526419164 1.8749999999999993
  endloop
endfacet
facet normal 0.7370554635070127 -0.6243875924643225 0.2586298089762078
  outer loop
    vertex 4.999999999999999 21.99759526419164 1.8749999999999993
    vertex 3.499999999999999 20.778444235207044 3.206480005284707
    vertex 3.499999999999999 20.568653347947322 2.7
  endloop
endfacet
facet normal 0.7370554635070127 -0.6243875924643225 0.2586298089762078
  outer loop
    vertex 3.499999999999999 20.778444235207044 3.206480005284707
    vertex 4.999999999999999 21.99759526419164 1.8749999999999993
    vertex 4.999999999999999 22.372221848584005 2.779428580865547
  endloop
endfacet
facet normal -7.763212719629685e-33 -0.9238795325112886 0.3826834323650851
  outer loop
    vertex 3.499999999999999 20.778444235207044 3.206480005284707
    vertex 3.1724622928663847e-15 20.568653347947322 2.7
    vertex 3.499999999999999 20.568653347947322 2.7
  endloop
endfacet
facet normal -7.763212719629685e-33 -0.9238795325112886 0.3826834323650851
  outer loop
    vertex 3.1724622928663847e-15 20.568653347947322 2.7
    vertex 3.499999999999999 20.778444235207044 3.206480005284707
    vertex 3.1724622928663847e-15 20.778444235207044 3.206480005284707
  endloop
endfacet
facet normal 0.0 -0.99144486137381 0.13052619222005485
  outer loop
    vertex 3.499999999999999 20.85 3.75
    vertex 3.1724622928663847e-15 20.778444235207044 3.206480005284707
    vertex 3.499999999999999 20.778444235207044 3.206480005284707
  endloop
endfacet
facet normal 0.0 -0.99144486137381 0.13052619222005485
  outer loop
    vertex 3.1724622928663847e-15 20.778444235207044 3.206480005284707
    vertex 3.499999999999999 20.85 3.75
    vertex 3.1724622928663847e-15 20.85 3.75
  endloop
endfacet
facet normal -2.265052520820561e-18 -0.7933533402912342 0.6087614290087222
  outer loop
    vertex 3.499999999999999 20.568653347947322 2.7
    vertex 3.1724622928663847e-15 20.23492424049175 2.2650757595082487
    vertex 3.499999999999999 20.23492424049175 2.2650757595082487
  endloop
endfacet
facet normal -2.265052520820561e-18 -0.7933533402912342 0.6087614290087222
  outer loop
    vertex 3.1724622928663847e-15 20.23492424049175 2.2650757595082487
    vertex 3.499999999999999 20.568653347947322 2.7
    vertex 3.1724622928663847e-15 20.568653347947322 2.7
  endloop
endfacet
facet normal 0.0 -0.9238795325112886 -0.3826834323650856
  outer loop
    vertex 3.499999999999999 20.568653347947322 4.800000000000001
    vertex 3.1724622928663847e-15 20.778444235207044 4.293519994715295
    vertex 3.499999999999999 20.778444235207044 4.293519994715295
  endloop
endfacet
facet normal 0.0 -0.9238795325112886 -0.3826834323650856
  outer loop
    vertex 3.1724622928663847e-15 20.778444235207044 4.293519994715295
    vertex 3.499999999999999 20.568653347947322 4.800000000000001
    vertex 3.1724622928663847e-15 20.568653347947322 4.800000000000001
  endloop
endfacet
facet normal -2.185150119457688e-18 -0.38268343236508906 0.9238795325112871
  outer loop
    vertex 3.499999999999999 19.293519994715293 1.7215557647929554
    vertex 3.1724622928663847e-15 19.8 1.9313466520526776
    vertex 3.1724622928663847e-15 19.293519994715293 1.7215557647929554
  endloop
endfacet
facet normal -2.185150119457688e-18 -0.38268343236508906 0.9238795325112871
  outer loop
    vertex 3.1724622928663847e-15 19.8 1.9313466520526776
    vertex 3.499999999999999 19.293519994715293 1.7215557647929554
    vertex 3.499999999999999 19.8 1.9313466520526776
  endloop
endfacet
facet normal -1.2349488034255558e-32 -0.7933533402912331 -0.6087614290087235
  outer loop
    vertex 3.499999999999999 20.23492424049175 5.234924240491751
    vertex 3.1724622928663847e-15 20.568653347947322 4.800000000000001
    vertex 3.499999999999999 20.568653347947322 4.800000000000001
  endloop
endfacet
facet normal -1.2349488034255558e-32 -0.7933533402912331 -0.6087614290087235
  outer loop
    vertex 3.1724622928663847e-15 20.568653347947322 4.800000000000001
    vertex 3.499999999999999 20.23492424049175 5.234924240491751
    vertex 3.1724622928663847e-15 20.23492424049175 5.234924240491751
  endloop
endfacet
facet normal 2.185150119457688e-18 -0.38268343236508906 -0.9238795325112871
  outer loop
    vertex 3.499999999999999 19.8 5.568653347947323
    vertex 3.1724622928663847e-15 19.293519994715293 5.778444235207045
    vertex 3.1724622928663847e-15 19.8 5.568653347947323
  endloop
endfacet
facet normal 2.185150119457688e-18 -0.38268343236508906 -0.9238795325112871
  outer loop
    vertex 3.1724622928663847e-15 19.293519994715293 5.778444235207045
    vertex 3.499999999999999 19.8 5.568653347947323
    vertex 3.499999999999999 19.293519994715293 5.778444235207045
  endloop
endfacet
facet normal 4.939795213702204e-32 -0.6087614290087209 0.7933533402912352
  outer loop
    vertex 3.499999999999999 19.8 1.9313466520526776
    vertex 3.1724622928663847e-15 20.23492424049175 2.2650757595082487
    vertex 3.1724622928663847e-15 19.8 1.9313466520526776
  endloop
endfacet
facet normal 4.939795213702204e-32 -0.6087614290087209 0.7933533402912352
  outer loop
    vertex 3.1724622928663847e-15 20.23492424049175 2.2650757595082487
    vertex 3.499999999999999 19.8 1.9313466520526776
    vertex 3.499999999999999 20.23492424049175 2.2650757595082487
  endloop
endfacet
facet normal -3.967768852285167e-32 0.793353340291236 -0.6087614290087195
  outer loop
    vertex 3.1724622928663847e-15 17.26507575950825 5.234924240491751
    vertex 3.499999999999999 16.931346652052678 4.800000000000001
    vertex 3.1724622928663847e-15 16.931346652052678 4.800000000000001
  endloop
endfacet
facet normal -3.967768852285167e-32 0.793353340291236 -0.6087614290087195
  outer loop
    vertex 3.499999999999999 16.931346652052678 4.800000000000001
    vertex 3.1724622928663847e-15 17.26507575950825 5.234924240491751
    vertex 3.499999999999999 17.26507575950825 5.234924240491751
  endloop
endfacet
facet normal 4.939795213702204e-32 0.6087614290087209 -0.7933533402912352
  outer loop
    vertex 3.499999999999999 17.7 5.568653347947323
    vertex 3.1724622928663847e-15 17.26507575950825 5.234924240491751
    vertex 3.1724622928663847e-15 17.7 5.568653347947323
  endloop
endfacet
facet normal 4.939795213702204e-32 0.6087614290087209 -0.7933533402912352
  outer loop
    vertex 3.1724622928663847e-15 17.26507575950825 5.234924240491751
    vertex 3.499999999999999 17.7 5.568653347947323
    vertex 3.499999999999999 17.26507575950825 5.234924240491751
  endloop
endfacet
facet normal -2.185150119457688e-18 0.38268343236508906 -0.9238795325112871
  outer loop
    vertex 3.499999999999999 18.206480005284707 5.778444235207045
    vertex 3.1724622928663847e-15 17.7 5.568653347947323
    vertex 3.1724622928663847e-15 18.206480005284707 5.778444235207045
  endloop
endfacet
facet normal -2.185150119457688e-18 0.38268343236508906 -0.9238795325112871
  outer loop
    vertex 3.1724622928663847e-15 17.7 5.568653347947323
    vertex 3.499999999999999 18.206480005284707 5.778444235207045
    vertex 3.499999999999999 17.7 5.568653347947323
  endloop
endfacet
facet normal 8.273142646089994e-32 0.9238795325112868 -0.3826834323650896
  outer loop
    vertex 3.1724622928663847e-15 16.931346652052678 4.800000000000001
    vertex 3.499999999999999 16.721555764792956 4.293519994715294
    vertex 3.1724622928663847e-15 16.721555764792956 4.293519994715294
  endloop
endfacet
facet normal 8.273142646089994e-32 0.9238795325112868 -0.3826834323650896
  outer loop
    vertex 3.499999999999999 16.721555764792956 4.293519994715294
    vertex 3.1724622928663847e-15 16.931346652052678 4.800000000000001
    vertex 3.499999999999999 16.931346652052678 4.800000000000001
  endloop
endfacet
facet normal -4.022540150777056e-32 -0.13052619222005232 -0.9914448613738103
  outer loop
    vertex 3.499999999999999 19.293519994715293 5.778444235207045
    vertex 3.1724622928663847e-15 18.75 5.850000000000002
    vertex 3.1724622928663847e-15 19.293519994715293 5.778444235207045
  endloop
endfacet
facet normal -4.022540150777056e-32 -0.13052619222005232 -0.9914448613738103
  outer loop
    vertex 3.1724622928663847e-15 18.75 5.850000000000002
    vertex 3.499999999999999 19.293519994715293 5.778444235207045
    vertex 3.499999999999999 18.75 5.850000000000002
  endloop
endfacet
facet normal 2.1183098299815295e-32 0.1305261922200523 -0.9914448613738103
  outer loop
    vertex 3.499999999999999 18.75 5.850000000000002
    vertex 3.1724622928663847e-15 18.206480005284707 5.778444235207045
    vertex 3.1724622928663847e-15 18.75 5.850000000000002
  endloop
endfacet
facet normal 2.1183098299815295e-32 0.1305261922200523 -0.9914448613738103
  outer loop
    vertex 3.1724622928663847e-15 18.206480005284707 5.778444235207045
    vertex 3.499999999999999 18.75 5.850000000000002
    vertex 3.499999999999999 18.206480005284707 5.778444235207045
  endloop
endfacet
facet normal 7.453140125750222e-19 0.99144486137381 0.1305261922200547
  outer loop
    vertex 3.1724622928663847e-15 16.65 3.750000000000001
    vertex 3.499999999999999 16.721555764792956 3.206480005284707
    vertex 3.1724622928663847e-15 16.721555764792956 3.206480005284707
  endloop
endfacet
facet normal 7.453140125750222e-19 0.99144486137381 0.1305261922200547
  outer loop
    vertex 3.499999999999999 16.721555764792956 3.206480005284707
    vertex 3.1724622928663847e-15 16.65 3.750000000000001
    vertex 3.499999999999999 16.65 3.750000000000001
  endloop
endfacet
facet normal -1.6090160603108218e-31 -0.99144486137381 -0.1305261922200545
  outer loop
    vertex 3.499999999999999 20.778444235207044 4.293519994715295
    vertex 3.1724622928663847e-15 20.85 3.75
    vertex 3.499999999999999 20.85 3.75
  endloop
endfacet
facet normal -1.6090160603108218e-31 -0.99144486137381 -0.1305261922200545
  outer loop
    vertex 3.1724622928663847e-15 20.85 3.75
    vertex 3.499999999999999 20.778444235207044 4.293519994715295
    vertex 3.1724622928663847e-15 20.778444235207044 4.293519994715295
  endloop
endfacet
facet normal 0.0 0.99144486137381 -0.13052619222005485
  outer loop
    vertex 3.1724622928663847e-15 16.721555764792956 4.293519994715294
    vertex 3.499999999999999 16.65 3.750000000000001
    vertex 3.1724622928663847e-15 16.65 3.750000000000001
  endloop
endfacet
facet normal 0.0 0.99144486137381 -0.13052619222005485
  outer loop
    vertex 3.499999999999999 16.65 3.750000000000001
    vertex 3.1724622928663847e-15 16.721555764792956 4.293519994715294
    vertex 3.499999999999999 16.721555764792956 4.293519994715294
  endloop
endfacet
facet normal -7.763212719629686e-33 0.9238795325112886 0.3826834323650851
  outer loop
    vertex 3.1724622928663847e-15 16.721555764792956 3.206480005284707
    vertex 3.499999999999999 16.931346652052675 2.7
    vertex 3.1724622928663847e-15 16.931346652052675 2.7
  endloop
endfacet
facet normal -7.763212719629686e-33 0.9238795325112886 0.3826834323650851
  outer loop
    vertex 3.499999999999999 16.931346652052675 2.7
    vertex 3.1724622928663847e-15 16.721555764792956 3.206480005284707
    vertex 3.499999999999999 16.721555764792956 3.206480005284707
  endloop
endfacet
facet normal -2.2650525208205658e-18 0.7933533402912333 0.608761429008723
  outer loop
    vertex 3.1724622928663847e-15 16.931346652052675 2.7
    vertex 3.499999999999999 17.26507575950825 2.2650757595082496
    vertex 3.1724622928663847e-15 17.26507575950825 2.2650757595082496
  endloop
endfacet
facet normal -2.2650525208205658e-18 0.7933533402912333 0.608761429008723
  outer loop
    vertex 3.499999999999999 17.26507575950825 2.2650757595082496
    vertex 3.1724622928663847e-15 16.931346652052675 2.7
    vertex 3.499999999999999 16.931346652052675 2.7
  endloop
endfacet
facet normal -3.330378598918148e-32 -0.6087614290087217 -0.7933533402912344
  outer loop
    vertex 3.499999999999999 20.23492424049175 5.234924240491751
    vertex 3.1724622928663847e-15 19.8 5.568653347947323
    vertex 3.1724622928663847e-15 20.23492424049175 5.234924240491751
  endloop
endfacet
facet normal -3.330378598918148e-32 -0.6087614290087217 -0.7933533402912344
  outer loop
    vertex 3.1724622928663847e-15 19.8 5.568653347947323
    vertex 3.499999999999999 20.23492424049175 5.234924240491751
    vertex 3.499999999999999 19.8 5.568653347947323
  endloop
endfacet
facet normal -7.076527470360007e-19 -0.13052619222005168 0.9914448613738105
  outer loop
    vertex 3.499999999999999 18.75 1.6499999999999988
    vertex 3.1724622928663847e-15 19.293519994715293 1.7215557647929554
    vertex 3.1724622928663847e-15 18.75 1.6499999999999988
  endloop
endfacet
facet normal -7.076527470360007e-19 -0.13052619222005168 0.9914448613738105
  outer loop
    vertex 3.1724622928663847e-15 19.293519994715293 1.7215557647929554
    vertex 3.499999999999999 18.75 1.6499999999999988
    vertex 3.499999999999999 19.293519994715293 1.7215557647929554
  endloop
endfacet
facet normal 0.0 0.3826834323650909 0.9238795325112863
  outer loop
    vertex 3.499999999999999 17.7 1.931346652052678
    vertex 3.1724622928663847e-15 18.206480005284703 1.7215557647929558
    vertex 3.1724622928663847e-15 17.7 1.931346652052678
  endloop
endfacet
facet normal 0.0 0.3826834323650909 0.9238795325112863
  outer loop
    vertex 3.1724622928663847e-15 18.206480005284703 1.7215557647929558
    vertex 3.499999999999999 17.7 1.931346652052678
    vertex 3.499999999999999 18.206480005284703 1.7215557647929558
  endloop
endfacet
facet normal 7.453140125750127e-19 0.13052619222005166 0.9914448613738105
  outer loop
    vertex 3.499999999999999 18.206480005284703 1.7215557647929558
    vertex 3.1724622928663847e-15 18.75 1.6499999999999988
    vertex 3.1724622928663847e-15 18.206480005284703 1.7215557647929558
  endloop
endfacet
facet normal 7.453140125750127e-19 0.13052619222005166 0.9914448613738105
  outer loop
    vertex 3.1724622928663847e-15 18.75 1.6499999999999988
    vertex 3.499999999999999 18.206480005284703 1.7215557647929558
    vertex 3.499999999999999 18.75 1.6499999999999988
  endloop
endfacet
facet normal -4.939795213702209e-32 0.6087614290087215 0.7933533402912344
  outer loop
    vertex 3.499999999999999 17.26507575950825 2.2650757595082496
    vertex 3.1724622928663847e-15 17.7 1.931346652052678
    vertex 3.1724622928663847e-15 17.26507575950825 2.2650757595082496
  endloop
endfacet
facet normal -4.939795213702209e-32 0.6087614290087215 0.7933533402912344
  outer loop
    vertex 3.1724622928663847e-15 17.7 1.931346652052678
    vertex 3.499999999999999 17.26507575950825 2.2650757595082496
    vertex 3.499999999999999 17.7 1.931346652052678
  endloop
endfacet
endsolid ALS box
