solid ALS box
facet normal 0.0 0.0 -1.0
  outer loop
    vertex 16.400000000000002 2.099999999999999 12.5
    vertex 6.1000000000000005 1.9999999999999991 12.5
    vertex 6.1000000000000005 2.099999999999999 12.5
  endloop
endfacet
facet normal 0.0 0.0 -1.0
  outer loop
    vertex 0.0 15.0 12.5
    vertex 3.5000000000000004 13.000000000000002 12.5
    vertex 0.0 0.0 12.5
  endloop
endfacet
facet normal 0.0 0.0 -1.0
  outer loop
    vertex 3.5000000000000004 13.000000000000002 12.5
    vertex 0.0 15.0 12.5
    vertex 19.0 15.0 12.5
  endloop
endfacet
facet normal 0.0 0.0 -1.0
  outer loop
    vertex 3.5000000000000004 13.000000000000002 12.5
    vertex 19.0 15.0 12.5
    vertex 6.1000000000000005 13.000000000000002 12.5
  endloop
endfacet
facet normal 0.0 0.0 -1.0
  outer loop
    vertex 6.1000000000000005 13.000000000000002 12.5
    vertex 19.0 15.0 12.5
    vertex 6.1000000000000005 12.900000000000002 12.5
  endloop
endfacet
facet normal 0.0 0.0 -1.0
  outer loop
    vertex 6.1000000000000005 12.900000000000002 12.5
    vertex 19.0 15.0 12.5
    vertex 16.4 12.900000000000002 12.5
  endloop
endfacet
facet normal 0.0 0.0 -1.0
  outer loop
    vertex 16.4 12.900000000000002 12.5
    vertex 19.0 15.0 12.5
    vertex 16.400000000000002 2.099999999999999 12.5
  endloop
endfacet
facet normal 0.0 0.0 -1.0
  outer loop
    vertex 0.0 0.0 12.5
    vertex 3.5000000000000004 1.9999999999999991 12.5
    vertex 19.0 0.0 12.5
  endloop
endfacet
facet normal 0.0 0.0 -1.0
  outer loop
    vertex 3.5000000000000004 1.9999999999999991 12.5
    vertex 0.0 0.0 12.5
    vertex 3.5000000000000004 13.000000000000002 12.5
  endloop
endfacet
facet normal 0.0 0.0 -1.0
  outer loop
    vertex 19.0 0.0 12.5
    vertex 3.5000000000000004 1.9999999999999991 12.5
    vertex 6.1000000000000005 1.9999999999999991 12.5
  endloop
endfacet
facet normal 0.0 0.0 -1.0
  outer loop
    vertex 19.0 0.0 12.5
    vertex 6.1000000000000005 1.9999999999999991 12.5
    vertex 16.400000000000002 2.099999999999999 12.5
  endloop
endfacet
facet normal 0.0 0.0 -1.0
  outer loop
    vertex 19.0 0.0 12.5
    vertex 16.400000000000002 2.099999999999999 12.5
    vertex 19.0 15.0 12.5
  endloop
endfacet
facet normal 0.0 1.0 0.0
  outer loop
    vertex 0.0 15.0 16.5
    vertex 19.0 15.0 12.5
    vertex 0.0 15.0 12.5
  endloop
endfacet
facet normal 0.0 1.0 0.0
  outer loop
    vertex 19.0 15.0 12.5
    vertex 0.0 15.0 16.5
    vertex 19.0 15.0 16.5
  endloop
endfacet
facet normal -1.0 0.0 0.0
  outer loop
    vertex 0.0 15.0 16.5
    vertex 0.0 0.0 12.5
    vertex 0.0 0.0 16.5
  endloop
endfacet
facet normal -1.0 0.0 0.0
  outer loop
    vertex 0.0 0.0 12.5
    vertex 0.0 15.0 16.5
    vertex 0.0 15.0 12.5
  endloop
endfacet
facet normal 1.0 0.0 0.0
  outer loop
    vertex 19.0 15.0 12.5
    vertex 19.0 0.0 16.5
    vertex 19.0 0.0 12.5
  endloop
endfacet
facet normal 1.0 0.0 0.0
  outer loop
    vertex 19.0 0.0 16.5
    vertex 19.0 15.0 12.5
    vertex 19.0 15.0 16.5
  endloop
endfacet
facet normal -0.0 -1.0 -0.0
  outer loop
    vertex 19.0 0.0 16.5
    vertex 0.0 0.0 12.5
    vertex 19.0 0.0 12.5
  endloop
endfacet
facet normal -0.0 -1.0 -0.0
  outer loop
    vertex 0.0 0.0 12.5
    vertex 19.0 0.0 16.5
    vertex 0.0 0.0 16.5
  endloop
endfacet
facet normal 0.0 0.0 1.0
  outer loop
    vertex 0.0 0.0 16.5
    vertex 3.5000000000000004 1.9999999999999991 16.5
    vertex 0.0 15.0 16.5
  endloop
endfacet
facet normal 0.0 0.0 1.0
  outer loop
    vertex 3.5000000000000004 1.9999999999999991 16.5
    vertex 0.0 0.0 16.5
    vertex 19.0 0.0 16.5
  endloop
endfacet
facet normal 0.0 0.0 1.0
  outer loop
    vertex 3.5000000000000004 1.9999999999999991 16.5
    vertex 19.0 0.0 16.5
    vertex 6.1000000000000005 1.9999999999999991 16.5
  endloop
endfacet
facet normal 0.0 0.0 1.0
  outer loop
    vertex 6.1000000000000005 1.9999999999999991 16.5
    vertex 19.0 0.0 16.5
    vertex 6.1000000000000005 13.000000000000002 16.5
  endloop
endfacet
facet normal 0.0 0.0 1.0
  outer loop
    vertex 0.0 15.0 16.5
    vertex 3.5000000000000004 13.000000000000002 16.5
    vertex 19.0 15.0 16.5
  endloop
endfacet
facet normal 0.0 0.0 1.0
  outer loop
    vertex 3.5000000000000004 13.000000000000002 16.5
    vertex 0.0 15.0 16.5
    vertex 3.5000000000000004 1.9999999999999991 16.5
  endloop
endfacet
facet normal 0.0 0.0 1.0
  outer loop
    vertex 19.0 15.0 16.5
    vertex 3.5000000000000004 13.000000000000002 16.5
    vertex 6.1000000000000005 13.000000000000002 16.5
  endloop
endfacet
facet normal 0.0 0.0 1.0
  outer loop
    vertex 19.0 15.0 16.5
    vertex 6.1000000000000005 13.000000000000002 16.5
    vertex 19.0 0.0 16.5
  endloop
endfacet
facet normal 0.0 0.0 -1.0
  outer loop
    vertex 16.4 12.900000000000002 10.5
    vertex 6.1000000000000005 2.099999999999999 10.5
    vertex 6.1000000000000005 12.900000000000002 10.5
  endloop
endfacet
facet normal 0.0 0.0 -1.0
  outer loop
    vertex 6.1000000000000005 2.099999999999999 10.5
    vertex 16.4 12.900000000000002 10.5
    vertex 16.400000000000002 2.099999999999999 10.5
  endloop
endfacet
facet normal 1.0 2.545206807867284e-16 7.121324468327966e-32
  outer loop
    vertex 16.400000000000002 2.099999999999999 10.5
    vertex 16.400000000000002 2.099999999999999 12.5
    vertex 16.400000000000002 1.6999999999999993 11.500000000000002
  endloop
endfacet
facet normal 1.0 2.545206807867284e-16 7.121324468327966e-32
  outer loop
    vertex 16.400000000000002 2.099999999999999 12.5
    vertex 16.400000000000002 2.099999999999999 10.5
    vertex 16.4 12.900000000000002 10.5
  endloop
endfacet
facet normal 1.0 2.545206807867284e-16 7.121324468327966e-32
  outer loop
    vertex 16.400000000000002 2.099999999999999 12.5
    vertex 16.4 12.900000000000002 10.5
    vertex 16.4 12.900000000000002 12.5
  endloop
endfacet
facet normal 1.0 2.545206807867284e-16 7.121324468327966e-32
  outer loop
    vertex 16.4 12.900000000000002 12.5
    vertex 16.4 12.900000000000002 10.5
    vertex 16.4 13.3 11.500000000000002
  endloop
endfacet
facet normal 6.959602714547262e-33 -0.9284766908852594 -0.3713906763541033
  outer loop
    vertex 16.400000000000002 1.6999999999999993 11.500000000000002
    vertex 6.1000000000000005 2.099999999999999 10.5
    vertex 16.400000000000002 2.099999999999999 10.5
  endloop
endfacet
facet normal 6.959602714547262e-33 -0.9284766908852594 -0.3713906763541033
  outer loop
    vertex 6.1000000000000005 2.099999999999999 10.5
    vertex 16.400000000000002 1.6999999999999993 11.500000000000002
    vertex 6.1000000000000005 1.6999999999999993 11.500000000000002
  endloop
endfacet
facet normal -1.0 0.0 0.0
  outer loop
    vertex 6.1000000000000005 2.099999999999999 10.5
    vertex 6.1000000000000005 1.6999999999999993 11.500000000000002
    vertex 6.1000000000000005 2.099999999999999 12.5
  endloop
endfacet
facet normal -1.0 0.0 0.0
  outer loop
    vertex 6.1000000000000005 13.000000000000002 16.5
    vertex 6.1000000000000005 1.9999999999999991 12.5
    vertex 6.1000000000000005 1.9999999999999991 16.5
  endloop
endfacet
facet normal -1.0 0.0 0.0
  outer loop
    vertex 6.1000000000000005 1.9999999999999991 12.5
    vertex 6.1000000000000005 13.000000000000002 16.5
    vertex 6.1000000000000005 2.099999999999999 12.5
  endloop
endfacet
facet normal -1.0 0.0 0.0
  outer loop
    vertex 6.1000000000000005 2.099999999999999 12.5
    vertex 6.1000000000000005 13.000000000000002 16.5
    vertex 6.1000000000000005 2.099999999999999 10.5
  endloop
endfacet
facet normal -1.0 0.0 0.0
  outer loop
    vertex 6.1000000000000005 2.099999999999999 10.5
    vertex 6.1000000000000005 13.000000000000002 16.5
    vertex 6.1000000000000005 12.900000000000002 12.5
  endloop
endfacet
facet normal -1.0 0.0 0.0
  outer loop
    vertex 6.1000000000000005 12.900000000000002 12.5
    vertex 6.1000000000000005 13.000000000000002 16.5
    vertex 6.1000000000000005 13.000000000000002 12.5
  endloop
endfacet
facet normal -1.0 0.0 0.0
  outer loop
    vertex 6.1000000000000005 12.900000000000002 12.5
    vertex 6.1000000000000005 12.900000000000002 10.5
    vertex 6.1000000000000005 2.099999999999999 10.5
  endloop
endfacet
facet normal -1.0 0.0 0.0
  outer loop
    vertex 6.1000000000000005 12.900000000000002 10.5
    vertex 6.1000000000000005 12.900000000000002 12.5
    vertex 6.1000000000000005 13.3 11.500000000000002
  endloop
endfacet
facet normal 0.0 0.9284766908852594 0.3713906763541037
  outer loop
    vertex 6.1000000000000005 12.900000000000002 12.5
    vertex 16.4 13.3 11.500000000000002
    vertex 6.1000000000000005 13.3 11.500000000000002
  endloop
endfacet
facet normal 0.0 0.9284766908852594 0.3713906763541037
  outer loop
    vertex 16.4 13.3 11.500000000000002
    vertex 6.1000000000000005 12.900000000000002 12.5
    vertex 16.4 12.900000000000002 12.5
  endloop
endfacet
facet normal 0.0 1.0 0.0
  outer loop
    vertex 3.5000000000000004 1.9999999999999991 16.5
    vertex 6.1000000000000005 1.9999999999999991 12.5
    vertex 3.5000000000000004 1.9999999999999991 12.5
  endloop
endfacet
facet normal 0.0 1.0 0.0
  outer loop
    vertex 6.1000000000000005 1.9999999999999991 12.5
    vertex 3.5000000000000004 1.9999999999999991 16.5
    vertex 6.1000000000000005 1.9999999999999991 16.5
  endloop
endfacet
facet normal 1.0 0.0 0.0
  outer loop
    vertex 3.5000000000000004 13.000000000000002 12.5
    vertex 3.5000000000000004 1.9999999999999991 16.5
    vertex 3.5000000000000004 1.9999999999999991 12.5
  endloop
endfacet
facet normal 1.0 0.0 0.0
  outer loop
    vertex 3.5000000000000004 1.9999999999999991 16.5
    vertex 3.5000000000000004 13.000000000000002 12.5
    vertex 3.5000000000000004 13.000000000000002 16.5
  endloop
endfacet
facet normal 0.0 -1.0 0.0
  outer loop
    vertex 6.1000000000000005 13.000000000000002 16.5
    vertex 3.5000000000000004 13.000000000000002 12.5
    vertex 6.1000000000000005 13.000000000000002 12.5
  endloop
endfacet
facet normal 0.0 -1.0 0.0
  outer loop
    vertex 3.5000000000000004 13.000000000000002 12.5
    vertex 6.1000000000000005 13.000000000000002 16.5
    vertex 3.5000000000000004 13.000000000000002 16.5
  endloop
endfacet
facet normal 0.0 -0.9284766908852592 0.3713906763541044
  outer loop
    vertex 16.400000000000002 2.099999999999999 12.5
    vertex 6.1000000000000005 1.6999999999999993 11.500000000000002
    vertex 16.400000000000002 1.6999999999999993 11.500000000000002
  endloop
endfacet
facet normal 0.0 -0.9284766908852592 0.3713906763541044
  outer loop
    vertex 6.1000000000000005 1.6999999999999993 11.500000000000002
    vertex 16.400000000000002 2.099999999999999 12.5
    vertex 6.1000000000000005 2.099999999999999 12.5
  endloop
endfacet
facet normal -1.9589540119926008e-18 0.9284766908852597 -0.3713906763541028
  outer loop
    vertex 6.1000000000000005 13.3 11.500000000000002
    vertex 16.4 12.900000000000002 10.5
    vertex 6.1000000000000005 12.900000000000002 10.5
  endloop
endfacet
facet normal -1.9589540119926008e-18 0.9284766908852597 -0.3713906763541028
  outer loop
    vertex 16.4 12.900000000000002 10.5
    vertex 6.1000000000000005 13.3 11.500000000000002
    vertex 16.4 13.3 11.500000000000002
  endloop
endfacet
endsolid ALS box
